<svg width="148" height="20" viewBox="0 0 148 20" fill="none" xmlns="http://www.w3.org/2000/svg">
<path d="M2.60938 6.25781C3.10156 6.27604 3.52083 6.45833 3.86719 6.80469C4.21354 7.13281 4.39583 7.54297 4.41406 8.03516V17.4961C4.30469 18.5898 3.70312 19.1823 2.60938 19.2734C2.09896 19.2734 1.65234 19.1094 1.26953 18.7812C0.904948 18.4349 0.722656 18.0065 0.722656 17.4961V8.03516C0.740885 7.52474 0.932292 7.10547 1.29688 6.77734C1.66146 6.43099 2.09896 6.25781 2.60938 6.25781ZM0.3125 2.70312C0.3125 2.19271 0.53125 1.75521 0.96875 1.39062C1.40625 1.02604 1.9349 0.84375 2.55469 0.84375C3.17448 0.84375 3.70312 1.02604 4.14062 1.39062C4.57812 1.75521 4.79688 2.19271 4.79688 2.70312C4.79688 3.23177 4.57812 3.67839 4.14062 4.04297C3.70312 4.40755 3.17448 4.58984 2.55469 4.58984C1.9349 4.58984 1.40625 4.40755 0.96875 4.04297C0.53125 3.67839 0.3125 3.23177 0.3125 2.70312Z" fill="white"/>
<path d="M9.63672 19.2734C9.14453 19.2552 8.72526 19.082 8.37891 18.7539C8.03255 18.4076 7.85026 17.9883 7.83203 17.4961V10.6875C7.85026 9.39323 8.03255 8.17188 8.37891 7.02344C8.74349 5.875 9.33594 4.90885 10.1562 4.125C10.9948 3.32292 12.0521 2.88542 13.3281 2.8125H23.8828C24.375 2.83073 24.7852 3.01302 25.1133 3.35938C25.4596 3.6875 25.6419 4.09766 25.6602 4.58984C25.6602 5.10026 25.487 5.53776 25.1406 5.90234C24.8125 6.26693 24.3932 6.45833 23.8828 6.47656H14.2578C13.5651 6.51302 12.9909 6.77734 12.5352 7.26953C12.0794 7.76172 11.7878 8.32682 11.6602 8.96484C11.5508 9.58464 11.5052 10.2682 11.5234 11.0156V17.4961C11.5052 18.0065 11.3138 18.4349 10.9492 18.7812C10.5846 19.1094 10.1471 19.2734 9.63672 19.2734ZM12.8086 12.082C12.8086 11.5716 12.9909 11.1432 13.3555 10.7969C13.7018 10.4323 14.1302 10.25 14.6406 10.25H23.8828C24.3932 10.25 24.8216 10.4323 25.168 10.7969C25.5326 11.1432 25.7148 11.5716 25.7148 12.082C25.7148 12.5924 25.5417 13.0299 25.1953 13.3945C24.8307 13.7409 24.3932 13.9141 23.8828 13.9141H14.6406C14.1302 13.9141 13.6927 13.7409 13.3281 13.3945C12.9818 13.0299 12.8086 12.5924 12.8086 12.082Z" fill="white"/>
<path d="M27.6289 17.1133C27.6289 16.6029 27.8021 16.1745 28.1484 15.8281C28.513 15.4635 28.9505 15.2812 29.4609 15.2812H34.7109V6.47656H29.4609C28.9505 6.47656 28.5221 6.29427 28.1758 5.92969C27.8112 5.58333 27.6289 5.15495 27.6289 4.64453C27.6289 4.13411 27.8021 3.70573 28.1484 3.35938C28.513 2.99479 28.9505 2.8125 29.4609 2.8125H43.625C44.1354 2.8125 44.5729 2.98568 44.9375 3.33203C45.2839 3.69661 45.457 4.13411 45.457 4.64453C45.457 5.15495 45.2747 5.59245 44.9102 5.95703C44.5638 6.30339 44.1354 6.47656 43.625 6.47656H38.4023V15.2812H43.625C44.1354 15.2812 44.5729 15.4544 44.9375 15.8008C45.2839 16.1654 45.457 16.6029 45.457 17.1133C45.457 17.6237 45.2747 18.0612 44.9102 18.4258C44.5638 18.7721 44.1354 18.9453 43.625 18.9453H29.4609C28.9505 18.9453 28.5221 18.763 28.1758 18.3984C27.8112 18.0521 27.6289 17.6237 27.6289 17.1133Z" fill="white"/>
<path d="M56.9961 2.07422C57.944 2.07422 58.8737 2.18359 59.7852 2.40234C60.7148 2.62109 61.599 2.94922 62.4375 3.38672C63.276 3.80599 64.0143 4.37109 64.6523 5.08203C65.3086 5.79297 65.6641 6.64062 65.7188 7.625V8.77344V17.4961C65.6094 18.5898 65.0078 19.1823 63.9141 19.2734C63.4036 19.2734 62.957 19.1094 62.5742 18.7812C62.2096 18.4349 62.0273 18.0065 62.0273 17.4961V8.47266C61.9909 7.90755 61.7721 7.44271 61.3711 7.07812C60.9883 6.69531 60.5508 6.39453 60.0586 6.17578C59.5846 5.95703 59.0833 5.79297 58.5547 5.68359C58.0443 5.57422 57.5247 5.51953 56.9961 5.51953C56.4674 5.51953 55.9388 5.57422 55.4102 5.68359C54.8997 5.79297 54.3984 5.95703 53.9062 6.17578C53.4323 6.39453 52.9948 6.69531 52.5938 7.07812C52.2109 7.44271 52.0013 7.90755 51.9648 8.47266V17.4961C51.8737 18.5898 51.2812 19.1823 50.1875 19.2734C49.6771 19.2734 49.2305 19.1094 48.8477 18.7812C48.4831 18.4349 48.3008 18.0065 48.3008 17.4961V8.77344V7.625C48.3555 6.64062 48.7018 5.79297 49.3398 5.08203C49.9779 4.37109 50.7161 3.80599 51.5547 3.38672C52.3932 2.94922 53.2682 2.62109 54.1797 2.40234C55.1094 2.18359 56.0482 2.07422 56.9961 2.07422Z" fill="white"/>
<path d="M75.3164 14.707C75.3164 14.1966 75.4896 13.7682 75.8359 13.4219C76.2005 13.0573 76.638 12.875 77.1484 12.875H81.332L80.6211 10.8516C80.3294 10.1042 80.0378 9.40234 79.7461 8.74609C79.4727 8.07161 79.1536 7.46094 78.7891 6.91406C78.4609 6.36719 78.0872 6.07552 77.668 6.03906C77.2305 6.07552 76.8385 6.36719 76.4922 6.91406C76.1458 7.46094 75.8268 8.07161 75.5352 8.74609C75.2617 9.40234 74.9792 10.1042 74.6875 10.8516L72.0898 17.9609C71.9076 18.3438 71.6706 18.6628 71.3789 18.918C71.1055 19.1549 70.6862 19.2734 70.1211 19.2734C69.5924 19.2734 69.1549 19.0911 68.8086 18.7266C68.4805 18.362 68.3346 17.9245 68.3711 17.4141C68.3893 17.1771 68.444 16.9583 68.5352 16.7578L71.543 8.99219C72.3815 6.95052 73.2201 5.30078 74.0586 4.04297C74.8789 2.80339 76.082 2.17448 77.668 2.15625C79.2357 2.17448 80.4297 2.80339 81.25 4.04297C82.0885 5.26432 82.9271 6.91406 83.7656 8.99219L86.7734 16.7578C86.8646 16.9583 86.9193 17.1771 86.9375 17.4141C86.974 17.9245 86.819 18.362 86.4727 18.7266C86.1445 19.0911 85.7161 19.2734 85.1875 19.2734C84.5859 19.2734 84.1393 19.1549 83.8477 18.918C83.5742 18.6628 83.3464 18.3438 83.1641 17.9609L82.6445 16.5391H77.1484C76.638 16.5391 76.2096 16.3568 75.8633 15.9922C75.4987 15.6458 75.3164 15.2174 75.3164 14.707Z" fill="white"/>
<path d="M98.3945 2.07422C99.3424 2.07422 100.272 2.18359 101.184 2.40234C102.113 2.62109 102.997 2.94922 103.836 3.38672C104.674 3.80599 105.413 4.37109 106.051 5.08203C106.707 5.79297 107.062 6.64062 107.117 7.625V8.77344V17.4961C107.008 18.5898 106.406 19.1823 105.312 19.2734C104.802 19.2734 104.355 19.1094 103.973 18.7812C103.608 18.4349 103.426 18.0065 103.426 17.4961V8.47266C103.389 7.90755 103.171 7.44271 102.77 7.07812C102.387 6.69531 101.949 6.39453 101.457 6.17578C100.983 5.95703 100.482 5.79297 99.9531 5.68359C99.4427 5.57422 98.9232 5.51953 98.3945 5.51953C97.8659 5.51953 97.3372 5.57422 96.8086 5.68359C96.2982 5.79297 95.7969 5.95703 95.3047 6.17578C94.8307 6.39453 94.3932 6.69531 93.9922 7.07812C93.6094 7.44271 93.3997 7.90755 93.3633 8.47266V17.4961C93.2721 18.5898 92.6797 19.1823 91.5859 19.2734C91.0755 19.2734 90.6289 19.1094 90.2461 18.7812C89.8815 18.4349 89.6992 18.0065 89.6992 17.4961V8.77344V7.625C89.7539 6.64062 90.1003 5.79297 90.7383 5.08203C91.3763 4.37109 92.1146 3.80599 92.9531 3.38672C93.7917 2.94922 94.6667 2.62109 95.5781 2.40234C96.5078 2.18359 97.4466 2.07422 98.3945 2.07422Z" fill="white"/>
<path d="M116.797 6.47656C116.104 6.51302 115.521 6.77734 115.047 7.26953C114.591 7.76172 114.263 8.32682 114.062 8.96484C113.862 9.58464 113.762 10.2227 113.762 10.8789C113.762 11.5352 113.853 12.1823 114.035 12.8203C114.236 13.4583 114.573 14.0234 115.047 14.5156C115.521 14.9896 116.104 15.2448 116.797 15.2812H125.82C126.969 15.3906 127.598 16.0195 127.707 17.168C127.689 17.6784 127.497 18.1068 127.133 18.4531C126.768 18.7812 126.331 18.9453 125.82 18.9453H117.098H115.84C114.564 18.8724 113.516 18.3893 112.695 17.4961C111.875 16.5846 111.283 15.5547 110.918 14.4062C110.572 13.2578 110.398 12.082 110.398 10.8789C110.398 9.98568 110.499 9.10156 110.699 8.22656C110.9 7.35156 111.21 6.52214 111.629 5.73828C112.066 4.9362 112.641 4.2526 113.352 3.6875C114.081 3.1224 114.91 2.83073 115.84 2.8125H116.359H125.82C126.969 2.92188 127.598 3.55078 127.707 4.69922C127.707 5.20964 127.516 5.63802 127.133 5.98438C126.768 6.3125 126.331 6.47656 125.82 6.47656H116.797Z" fill="white"/>
<path d="M135.309 2.8125H136.566H145.863C146.374 2.83073 146.793 3.02214 147.121 3.38672C147.467 3.7513 147.641 4.1888 147.641 4.69922C147.549 5.79297 146.957 6.38542 145.863 6.47656H136.238C135.546 6.51302 134.971 6.77734 134.516 7.26953C134.06 7.76172 133.723 8.32682 133.504 8.96484C133.303 9.58464 133.203 10.2227 133.203 10.8789C133.203 11.5352 133.303 12.1823 133.504 12.8203C133.723 13.4401 134.06 13.9961 134.516 14.4883C134.971 14.9805 135.546 15.2448 136.238 15.2812H145.863C146.374 15.2995 146.793 15.4909 147.121 15.8555C147.467 16.2201 147.641 16.6576 147.641 17.168C147.622 17.6602 147.44 18.0794 147.094 18.4258C146.766 18.7539 146.355 18.9271 145.863 18.9453H135.828H135.309C134.033 18.8724 132.975 18.3893 132.137 17.4961C131.316 16.5846 130.724 15.5547 130.359 14.4062C130.013 13.2578 129.84 12.082 129.84 10.8789C129.84 9.67578 130.022 8.5 130.387 7.35156C130.751 6.20312 131.344 5.18229 132.164 4.28906C132.984 3.3776 134.033 2.88542 135.309 2.8125ZM147.586 10.7695C147.586 11.2799 147.404 11.7083 147.039 12.0547C146.693 12.4193 146.264 12.6016 145.754 12.6016H137.496C136.986 12.6016 136.548 12.4284 136.184 12.082C135.837 11.7174 135.664 11.2799 135.664 10.7695C135.664 10.2591 135.837 9.82161 136.184 9.45703C136.548 9.11068 136.986 8.9375 137.496 8.9375H145.754C146.264 8.9375 146.693 9.11979 147.039 9.48438C147.404 9.83073 147.586 10.2591 147.586 10.7695Z" fill="white"/>
</svg>
